<svg xmlns="http://www.w3.org/2000/svg" xmlns:xlink="http://www.w3.org/1999/xlink" width="131.548" height="71.489" viewBox="0 0 131.548 71.489">
  <defs>
    <filter id="合体_6" x="0" y="0" width="131.548" height="71.489" filterUnits="userSpaceOnUse">
      <feOffset dy="3" input="SourceAlpha"/>
      <feGaussianBlur stdDeviation="3" result="blur"/>
      <feFlood flood-opacity="0.129"/>
      <feComposite operator="in" in2="blur"/>
      <feComposite in="SourceGraphic"/>
    </filter>
    <filter id="パス_293" x="26.875" y="12.597" width="73.95" height="42.008" filterUnits="userSpaceOnUse">
      <feOffset dy="3" input="SourceAlpha"/>
      <feGaussianBlur stdDeviation="3" result="blur-2"/>
      <feFlood flood-color="#212121" flood-opacity="0.161"/>
      <feComposite operator="in" in2="blur-2"/>
      <feComposite in="SourceGraphic"/>
    </filter>
  </defs>
  <g id="グループ_307" data-name="グループ 307" transform="translate(-466.891 -420.289)">
    <g transform="matrix(1, 0, 0, 1, 466.89, 420.29)" filter="url(#合体_6)">
      <path id="合体_6-2" data-name="合体 6" d="M-4234.1-264.854l-28.768-4.043a20.335,20.335,0,0,1-17.306-22.967A20.333,20.333,0,0,1-4257.2-309.17l72.875,10.242a20.334,20.334,0,0,1,17.306,22.966,20.335,20.335,0,0,1-22.967,17.307l-28.374-3.988-8.972,6.761Z" transform="translate(4289.37 315.37)" fill="#fff"/>
    </g>
    <g transform="matrix(1, 0, 0, 1, 466.89, 420.29)" filter="url(#パス_293)">
      <path id="パス_293-2" data-name="パス 293" d="M11.826-6.03h2.7c1.6,0,2.16.036,2.268.036.18,0,.18-.018.18-.2V-7.6c0-.162,0-.18-.18-.18-.108,0-.666.036-2.268.036H9.864v-2.574h2.844c1.746,0,2.358.036,2.466.036.18,0,.2-.018.2-.2v-1.35c0-.2-.018-.216-.2-.216-.108,0-.72.036-2.466.036H9.864v-1.1a3.077,3.077,0,0,1,.108-1.188,1.016,1.016,0,0,0,.108-.36c0-.108-.126-.18-.288-.2-.63-.072-1.242-.108-1.926-.144a9.472,9.472,0,0,1,.126,2v.99H5.526c.162-.324.306-.684.468-1.044a1.371,1.371,0,0,1,.324-.522.341.341,0,0,0,.162-.27c0-.108-.126-.2-.288-.27a11.614,11.614,0,0,0-1.674-.522,4.573,4.573,0,0,1-.432,1.422A11.244,11.244,0,0,1,1.44-9.432,4.6,4.6,0,0,1,2.5-8.658c.2.2.306.306.4.306s.2-.108.378-.306a13.586,13.586,0,0,0,1.278-1.656H7.992V-7.74H3.564c-1.62,0-2.16-.036-2.268-.036-.2,0-.216.018-.216.18v1.4c0,.18.018.2.216.2.108,0,.648-.036,2.268-.036h2.3A5.968,5.968,0,0,1,4.824-2.448,6.5,6.5,0,0,1,.882-.18,5.53,5.53,0,0,1,1.836.99c.162.306.234.432.378.432A1.6,1.6,0,0,0,2.628,1.3,7.572,7.572,0,0,0,6.48-1.512,8.085,8.085,0,0,0,7.758-6.03H9.936v4.95C9.936,0,10.08.4,10.368.666c.36.342,1.116.54,2.772.54,1.782,0,2.466-.252,2.97-.774a3.808,3.808,0,0,0,.882-2.718c.018-.45.018-.45-.432-.558a3.852,3.852,0,0,1-1.314-.54c-.018,1.512-.162,2.142-.45,2.448-.252.252-.648.4-1.512.4-.72,0-1.152-.09-1.3-.252-.144-.144-.162-.288-.162-.882ZM23.364-7.506a12.064,12.064,0,0,1-4.1,6.246,4.177,4.177,0,0,1,.954.918c.18.234.27.342.36.342.108,0,.216-.108.432-.288a13.2,13.2,0,0,0,2.916-3.906V-2.3c0,2.826-.036,3.456-.036,3.546,0,.18.018.2.2.2h1.368c.18,0,.2-.018.2-.2v-.5H31.9v.45c0,.2.018.216.18.216h1.44c.2,0,.2-.018.2-.216,0-.09-.018-.612-.018-3.384V-4.032c0-1.746.018-2.286.018-2.394,0-.2,0-.216-.2-.216-.108,0-.936.036-2.556.036H24.894c.09-.288.18-.594.252-.9h8.1c1.584,0,2.142.036,2.25.036.162,0,.18-.018.18-.2V-8.73c0-.18-.018-.2-.18-.2-.108,0-.666.036-2.25.036H28.494v-.936h2.718c1.764,0,2.376.036,2.484.036.162,0,.18-.018.18-.2v-.972c0-.18-.018-.2-.18-.2-.108,0-.72.036-2.484.036H28.494v-.882h3.654c1.71,0,2.3.036,2.412.036.2,0,.216-.018.216-.2v-1.044c0-.18-.018-.2-.216-.2-.108,0-.7.036-2.412.036H30.78c.126-.2.252-.378.36-.576a1.149,1.149,0,0,1,.324-.378.311.311,0,0,0,.2-.252c0-.126-.09-.162-.252-.216a14.857,14.857,0,0,0-1.656-.4,4.026,4.026,0,0,1-.288.828c-.2.378-.342.7-.522.99h-2.61a9.566,9.566,0,0,0-1.152-1.638c-.126-.162-.162-.126-.36-.072l-1.134.324c-.252.072-.234.108-.108.27a9,9,0,0,1,.774,1.116h-1.08c-1.728,0-2.3-.036-2.412-.036-.18,0-.2.018-.2.2v1.044c0,.18.018.2.2.2.108,0,.684-.036,2.412-.036h3.384v.882H24.1c-1.764,0-2.376-.036-2.484-.036-.18,0-.2.018-.2.2v.972c0,.18.018.2.2.2.108,0,.72-.036,2.484-.036h2.556v.936H22.1c-1.6,0-2.142-.036-2.25-.036-.18,0-.2.018-.2.2v1.062c0,.18.018.2.2.2.108,0,.648-.036,2.25-.036ZM31.9-5.256v.792H25.65v-.792Zm-6.246,2.7v-.792H31.9v.792Zm0,1.926v-.792H31.9V-.63Zm23.526-12.1a8.525,8.525,0,0,1-.522,1.332c-1.4,0-1.89-.036-2.016-.036-.18,0-.2.018-.2.2,0,.126.036.72.036,2.088v4.716c0,1.368-.036,1.98-.036,2.106,0,.18.018.2.2.2.126,0,.63-.036,2.07-.036h2.808c1.458,0,1.962.036,2.07.036.2,0,.216-.018.216-.2,0-.108-.036-.738-.036-2.106V-9.144c0-1.368.036-1.98.036-2.088,0-.18-.018-.2-.216-.2-.108,0-.612.036-2.07.036H50.454c.2-.4.378-.828.576-1.332H52.2c1.638,0,2.178.036,2.268.036.18,0,.2-.018.2-.2V-14.2c0-.18-.018-.2-.2-.2-.09,0-.63.036-2.268.036H48.348c-1.62,0-2.16-.036-2.268-.036-.2,0-.216.018-.216.2v1.314c0,.18.018.2.216.2.108,0,.648-.036,2.268-.036Zm2.844,9H48.186V-4.932H52.02ZM48.186-6.282v-1.17H52.02v1.17ZM52.02-9.936V-8.8H48.186V-9.936Zm-8.28,7.56C43.74-.324,43.7.666,43.7.792c0,.18.018.2.18.2h1.26c.2,0,.216-.018.216-.2,0-.036-.018-.216-.018-.468a3.057,3.057,0,0,1,.576.72c.18.288.252.4.378.4a1.179,1.179,0,0,0,.432-.162A9.157,9.157,0,0,0,48.87-.378a1.055,1.055,0,0,1,.45-.36c.126-.054.216-.108.216-.216s-.054-.162-.2-.288a9.212,9.212,0,0,0-1.188-.864,4.2,4.2,0,0,1-.558.684,7.4,7.4,0,0,1-2.25,1.53c-.018-.522-.018-1.332-.018-2.484v-9.54a13.4,13.4,0,0,1,.072-2.106,1.633,1.633,0,0,0,.09-.378c0-.09-.09-.162-.27-.2-.414-.036-1.044-.072-1.566-.09.072.792.09,1.6.09,2.7Zm-3.168-9.63a13.591,13.591,0,0,1,.072-2,2.361,2.361,0,0,0,.108-.414c0-.09-.09-.144-.27-.18-.45-.036-1.044-.072-1.638-.09a16.353,16.353,0,0,1,.126,2.682v3.528a44.653,44.653,0,0,1-.2,4.842,9.28,9.28,0,0,1-.918,3.42,4.791,4.791,0,0,1,.954.954c.162.216.252.324.36.324.09,0,.162-.108.27-.324a13.07,13.07,0,0,0,.972-4.05c.162-1.53.162-3.4.162-5.22Zm.846,7.488c0,1.8-.036,2.7-.036,2.808,0,.18.018.2.2.2h1.152c.18,0,.2-.018.2-.2,0-.108-.036-1.008-.036-2.808v-7.02a10.057,10.057,0,0,1,.072-1.818,1.737,1.737,0,0,0,.108-.378c0-.09-.108-.144-.288-.18-.432-.054-.936-.072-1.458-.09a20.691,20.691,0,0,1,.09,2.484ZM50.85-1.332c-.18.144-.216.216-.09.36A10.467,10.467,0,0,0,53.5,1.17a1.345,1.345,0,0,0,.432.18c.144,0,.216-.126.378-.432A4.176,4.176,0,0,1,55.044-.09,8.087,8.087,0,0,1,52-2c-.072-.072-.108-.09-.162-.09s-.09.018-.18.09Z" transform="translate(35.2 33.52) rotate(8)" fill="#f89028"/>
    </g>
  </g>
</svg>
