<svg xmlns="http://www.w3.org/2000/svg" xmlns:xlink="http://www.w3.org/1999/xlink" width="348.117" height="43.176" viewBox="0 0 348.117 43.176">
  <defs>
    <linearGradient id="linear-gradient" x1="0.5" y1="1" x2="0.5" gradientUnits="objectBoundingBox">
      <stop offset="0" stop-color="#5157a0"/>
      <stop offset="1" stop-color="#002b69"/>
    </linearGradient>
    <linearGradient id="linear-gradient-3" x1="0.5" y1="1" x2="0.5" y2="0" xlink:href="#linear-gradient"/>
  </defs>
  <g id="グループ_285" data-name="グループ 285" transform="translate(-28 -29)">
    <path id="パス_261" data-name="パス 261" d="M213.825,263.4h-9.473v6.533h9.138v3.851h-9.138v12.943h-4.1V259.543h13.575Z" transform="translate(-89.365 -223.304)" fill="#5f5e5e"/>
    <path id="パス_262" data-name="パス 262" d="M215.125,259.543v27.185h-4.1V259.543Z" transform="translate(-80.295 -223.304)" fill="#5f5e5e"/>
    <path id="パス_263" data-name="パス 263" d="M220.418,259.543l7.519,18.839,7.622-18.839h4.491l-12.2,29.227-11.921-29.227Z" transform="translate(-76.167 -223.304)" fill="#5f5e5e"/>
    <path id="パス_264" data-name="パス 264" d="M246.681,263.4h-10.9v6.533h10.582v3.851H235.783v9.086h10.9v3.857h-15V259.543h15Z" transform="translate(-62.903 -223.304)" fill="#5f5e5e"/>
    <path id="パス_265" data-name="パス 265" d="M265.034,272.814h11.236v.9a18.5,18.5,0,0,1-.724,5.424,11.54,11.54,0,0,1-2.378,4.087,12.315,12.315,0,0,1-9.629,4.258,13.245,13.245,0,0,1-9.771-4.118,14.194,14.194,0,0,1,16.091-22.806,17.093,17.093,0,0,1,5.2,4.212l-2.923,2.8q-3.346-4.454-8.152-4.454a9.747,9.747,0,0,0-7.237,2.975,9.933,9.933,0,0,0-2.923,7.323,10.217,10.217,0,0,0,9.86,10.211,8.226,8.226,0,0,0,5.443-2.035,7.253,7.253,0,0,0,2.691-4.916h-6.778Z" transform="translate(-47.733 -223.546)" fill="#5f5e5e"/>
    <path id="パス_266" data-name="パス 266" d="M283.417,263.4v23.328h-4.1V263.4h-6.251v-3.857h16.586V263.4Z" transform="translate(-28.065 -223.304)" fill="#5f5e5e"/>
    <path id="パス_267" data-name="パス 267" d="M284.142,273.244a13.313,13.313,0,0,1,4.207-9.86,13.861,13.861,0,0,1,10.072-4.119A14.216,14.216,0,0,1,312.559,273.4a13.379,13.379,0,0,1-4.19,9.95,14.37,14.37,0,0,1-19.614.457A13.357,13.357,0,0,1,284.142,273.244Zm4.137.044a10.076,10.076,0,0,0,17.2,7.355,10.534,10.534,0,0,0,.035-14.568,10.145,10.145,0,0,0-14.313,0A9.8,9.8,0,0,0,288.279,273.288Z" transform="translate(-18.737 -223.538)" fill="#5f5e5e"/>
    <path id="パス_268" data-name="パス 268" d="M307.295,270.39l10.583-10.847h5.476L311.065,271.85l12.361,14.877h-5.5l-9.788-12.1-.845.845v11.252h-4.1V259.543h4.1Z" transform="translate(-2.698 -223.304)" fill="#5f5e5e"/>
    <path id="パス_269" data-name="パス 269" d="M324.026,274.984l-8.876-15.441h4.721l6.216,10.864,6.231-10.864h4.719l-8.907,15.441v11.744h-4.1Z" transform="translate(7.369 -223.304)" fill="#5f5e5e"/>
    <path id="パス_270" data-name="パス 270" d="M328.822,273.244a13.318,13.318,0,0,1,4.205-9.86,13.865,13.865,0,0,1,10.073-4.119A14.219,14.219,0,0,1,357.239,273.4a13.366,13.366,0,0,1-4.19,9.95,14.37,14.37,0,0,1-19.614.457A13.352,13.352,0,0,1,328.822,273.244Zm4.137.044a10.075,10.075,0,0,0,17.2,7.355,10.532,10.532,0,0,0,.037-14.568,9.6,9.6,0,0,0-7.148-2.954,9.708,9.708,0,0,0-7.167,2.954A9.815,9.815,0,0,0,332.959,273.288Z" transform="translate(18.879 -223.538)" fill="#5f5e5e"/>
    <path id="パス_271" data-name="パス 271" d="M155.25,255.613v43.176a81.438,81.438,0,0,1,11.433-4.052V255.613Z" transform="translate(-127.25 -226.613)" fill="url(#linear-gradient)"/>
    <path id="パス_272" data-name="パス 272" d="M174.131,255.613H162.7v38.534a82.1,82.1,0,0,1,11.434-1.936Z" transform="translate(-120.98 -226.613)" fill="url(#linear-gradient)"/>
    <path id="パス_273" data-name="パス 273" d="M181.578,292.036V255.613H170.147v36.423c1.888-.131,3.791-.219,5.715-.219S179.69,291.906,181.578,292.036Z" transform="translate(-114.708 -226.613)" fill="url(#linear-gradient-3)"/>
    <path id="パス_274" data-name="パス 274" d="M189.029,255.613H177.6v36.6a82.092,82.092,0,0,1,11.434,1.932Z" transform="translate(-108.438 -226.613)" fill="url(#linear-gradient)"/>
    <path id="パス_275" data-name="パス 275" d="M196.476,255.613H185.043v39.124a81.351,81.351,0,0,1,11.433,4.052Z" transform="translate(-102.167 -226.613)" fill="url(#linear-gradient)"/>
  </g>
</svg>
