<svg xmlns="http://www.w3.org/2000/svg" width="67.595" height="91.913" viewBox="0 0 67.595 91.913"><defs><style>.a{fill:#6463a8;stroke:#6463a8;stroke-width:2px;}</style></defs><g transform="translate(-924.983 -696.966)"><g transform="translate(947.254 744.684)"><g transform="translate(10.596)"><path class="a" d="M49.9,59.919a.9.9,0,0,1-.9-.9V52.9a.9.9,0,1,1,1.8,0v6.119A.9.9,0,0,1,49.9,59.919Z" transform="translate(-49 -52)"/></g><g transform="translate(0 1.282)"><path class="a" d="M40.982,61.951a.99.99,0,0,1-.9-.54l-2.79-6.659a.969.969,0,1,1,1.8-.72l2.79,6.659a.99.99,0,0,1-.54,1.26Z" transform="translate(-37.225 -53.425)"/></g><g transform="translate(18.909 1.833)"><path class="a" d="M59.194,62.013a.68.68,0,0,1-.36-.09.936.936,0,0,1-.54-1.17l2.25-6.119a.911.911,0,1,1,1.71.63L60,61.383A.77.77,0,0,1,59.194,62.013Z" transform="translate(-58.237 -54.037)"/></g></g><g transform="translate(931.828 698)"><g transform="translate(0 19.281)"><g transform="translate(33.219 0.03)"><path class="a" d="M76.707,58.223a.888.888,0,0,1-.9-.81l-.18-1.17a9.85,9.85,0,0,0-3.42-5.669,8.1,8.1,0,0,0-3.24-1.71l-9.449-2.7a3.2,3.2,0,0,1-.81-.36,2.847,2.847,0,0,1-1.26-2.16L57,39.956a.877.877,0,0,1,.36-.81,14.714,14.714,0,0,0,5.129-8.1,1.1,1.1,0,0,1,.81-.72c1.17-.09,2.07-1.62,2.07-3.42,0-1.71-.81-3.15-1.89-3.42a.971.971,0,0,1,.45-1.89c1.98.45,3.33,2.61,3.33,5.219,0,2.52-1.35,4.589-3.15,5.129a16.557,16.557,0,0,1-5.219,8.189l.36,3.15a.945.945,0,0,0,.45.81c.09.09.18.09.27.18l9.359,2.7a9.913,9.913,0,0,1,3.959,2.07,11.968,11.968,0,0,1,4.049,6.749v.09l.18,1.17a.93.93,0,0,1-.81,1.08C76.8,58.223,76.8,58.223,76.707,58.223Z" transform="translate(-57 -21.581)"/></g><path class="a" d="M21,58.22h-.09a.93.93,0,0,1-.81-1.08l.18-1.17v-.09a11.968,11.968,0,0,1,4.049-6.749,9.661,9.661,0,0,1,4.049-2.07l9.269-2.7c.09,0,.18-.09.27-.18a.945.945,0,0,0,.45-.81l.36-3.15a17.24,17.24,0,0,1-5.219-8.279c-1.8-.54-3.15-2.61-3.15-5.129s1.35-4.679,3.15-5.219a.94.94,0,1,1,.54,1.8c-1.08.27-1.8,1.71-1.8,3.33,0,1.8.9,3.33,2.07,3.42a.853.853,0,0,1,.81.72,15.224,15.224,0,0,0,5.129,8.1.977.977,0,0,1,.36.81l-.45,3.689a3.008,3.008,0,0,1-1.26,2.16,3.2,3.2,0,0,1-.81.36l-9.359,2.7a7.864,7.864,0,0,0-3.33,1.71,10.04,10.04,0,0,0-3.42,5.669l-.18,1.17C21.808,57.95,21.448,58.22,21,58.22Z" transform="translate(-20.085 -21.547)"/></g><g transform="translate(12.77 11.347)"><path class="a" d="M35.2,22.692a.9.9,0,0,1-.9-.9c0-.18-.36-5.489,1.8-8.639a.911.911,0,1,1,1.53.99c-1.8,2.61-1.44,7.469-1.44,7.469-.09.63-.45,1.08-.99,1.08Z" transform="translate(-34.275 -12.731)"/></g><g transform="translate(38.293 13.161)"><path class="a" d="M64.4,22.894h0a.875.875,0,0,1-.9-.99,21.268,21.268,0,0,0-.81-5.939.882.882,0,0,1,.63-1.17.947.947,0,0,1,1.17.63,23.667,23.667,0,0,1,.9,6.569A.986.986,0,0,1,64.4,22.894Z" transform="translate(-62.638 -14.747)"/></g><g transform="translate(14.322)"><path class="a" d="M55.8,13.51c-.63,0-1.17-.09-1.62-.09-1.35-.18-2.7-.54-4.049-.81-.81-.18-1.71-.36-2.52-.54a13.874,13.874,0,0,0-6.119,0,.882.882,0,0,1-1.17-.63.913.913,0,0,1,.63-1.17,14.006,14.006,0,0,1,7.019-.09c.9.18,1.71.36,2.61.54,1.35.27,2.52.63,3.869.81a7.86,7.86,0,0,0,2.88-.09,4.914,4.914,0,0,0,2.97-2.88,16.342,16.342,0,0,0,.54-4.949A11.815,11.815,0,0,1,54,3.792a1.614,1.614,0,0,1-.63-.45,1.249,1.249,0,0,1,0-.81c0-.09.09-.18.09-.27a40.364,40.364,0,0,1-6.569,1.35h-.27c-4.229.54-8.729,3.6-8.819,8.909a.9.9,0,0,1-.9.9h0a.925.925,0,0,1-.9-.99c.09-6.479,5.489-10.079,10.439-10.709h.27A36.5,36.5,0,0,0,53.818.192a.984.984,0,0,1,1.17.36,2.776,2.776,0,0,1,.45,1.62,10.133,10.133,0,0,0,6.029-.72,1.065,1.065,0,0,1,.9.09.945.945,0,0,1,.45.81c0,2.61,0,5.489-.72,7.109a6.879,6.879,0,0,1-4.139,3.959C57.147,13.42,56.517,13.51,55.8,13.51Z" transform="translate(-36 -0.122)"/></g></g><g transform="translate(928.965 780.949)"><path class="a" d="M75.572,99.229H17.8a.9.9,0,0,1-.9-.9A6.03,6.03,0,0,1,22.929,92.3H70.443a6.03,6.03,0,0,1,6.029,6.029A.968.968,0,0,1,75.572,99.229ZM18.88,97.339H74.492a4.143,4.143,0,0,0-4.049-3.24H22.929A4.239,4.239,0,0,0,18.88,97.339Z" transform="translate(-16.9 -92.3)"/></g><g transform="translate(926 755.843)"><path class="a" d="M20.8,91.306a.979.979,0,0,1-.9-.63L13.781,70.159A4.483,4.483,0,0,1,14.5,66.2a4.314,4.314,0,0,1,3.6-1.8H74.7a4.433,4.433,0,0,1,3.6,1.8,4.726,4.726,0,0,1,.72,3.959L72.9,90.676a.939.939,0,0,1-1.8-.54l6.119-20.517a2.478,2.478,0,0,0-.36-2.25,2.56,2.56,0,0,0-2.07-.99H18.1a2.691,2.691,0,0,0-2.07.99,2.478,2.478,0,0,0-.36,2.25L21.7,90.137a.947.947,0,0,1-.63,1.17Z" transform="translate(-13.607 -64.4)"/></g><g transform="translate(950.434 734.749)"><path class="a" d="M49.075,45.945a7.272,7.272,0,0,1-3.33-.81l-4.5-2.43a.926.926,0,0,1,.9-1.62l4.5,2.43a5.163,5.163,0,0,0,4.859,0l4.409-2.43a.926.926,0,1,1,.9,1.62L52.4,45.135A7.272,7.272,0,0,1,49.075,45.945Z" transform="translate(-40.759 -40.959)"/></g></g></svg>