<svg xmlns="http://www.w3.org/2000/svg" width="50.212" height="35.9" viewBox="0 0 50.212 35.9"><defs><style>.a{fill:#6463a8;}</style></defs><g transform="translate(0.032 -14.151)"><path class="a" d="M16.505,18.553a9.96,9.96,0,0,1,4.946,18.626A16.814,16.814,0,0,1,33.027,51.07a.95.95,0,0,1-.947,1.158,1.043,1.043,0,0,1-1.158-.842,14.514,14.514,0,0,0-28.834,0,1.043,1.043,0,0,1-1.158.842A.95.95,0,0,1-.016,51.07,16.815,16.815,0,0,1,11.56,37.179a9.864,9.864,0,0,1-5.051-8.629A9.993,9.993,0,0,1,16.505,18.553Zm0,2.1A7.893,7.893,0,1,0,24.4,28.551,7.882,7.882,0,0,0,16.505,20.658Z" transform="translate(0 -2.192)"/><path class="a" d="M55.047,21.728a.986.986,0,0,1-1.158.842.937.937,0,0,1-.842-1.158,8.518,8.518,0,0,1,16.942,1.263A8.638,8.638,0,0,1,66.1,29.936,14.246,14.246,0,0,1,75.672,43.3a1.055,1.055,0,0,1-1.052,1.053A1,1,0,0,1,73.567,43.3a12.081,12.081,0,0,0-12.1-12,11.682,11.682,0,0,0-8.524,3.578,1.042,1.042,0,1,1-1.473-1.473,13.538,13.538,0,0,1,5.472-3.473,9.837,9.837,0,0,1-2.947-2.947,1.166,1.166,0,0,1,.421-1.473,1.065,1.065,0,0,1,1.473.421,6.412,6.412,0,0,0,12-3.262,6.378,6.378,0,0,0-6.419-6.419A6.542,6.542,0,0,0,55.047,21.728Z" transform="translate(-25.492 0)"/></g></svg>