<svg xmlns="http://www.w3.org/2000/svg" width="46.613" height="39.43" viewBox="0 0 46.613 39.43"><defs><style>.a{fill:#6463a8;stroke:#6463a8;stroke-width:0.3px;}</style></defs><path class="a" d="M41.019,29.606l6.456,6.25a.486.486,0,0,0,.682-.005l.377-.377a.486.486,0,0,0,0-.692l-7.509-7.3a.486.486,0,0,0-.68,0l-3.875,3.81a.486.486,0,0,1-.684,0l-9.316-9.316a.486.486,0,0,1-.142-.344V17.245a.486.486,0,0,1,.486-.486h.547a.486.486,0,0,1,.486.486v2.066a.486.486,0,0,0,.486.486H44.067a.486.486,0,0,0,.486-.486V9.649a.486.486,0,0,0-.486-.486H42a.486.486,0,0,1-.486-.486V6.611a.486.486,0,0,0-.486-.486H25.29a.486.486,0,0,0-.486.486V21.632a.486.486,0,0,1-.142.344l-9.389,9.389a.486.486,0,0,1-.687,0l-3.87-3.87a.486.486,0,0,0-.687,0l-7.44,7.44a.486.486,0,0,0,0,.687L2.964,36a.486.486,0,0,0,.687,0l6.377-6.377a.486.486,0,0,1,.687,0l2.806,2.806a.486.486,0,0,1,0,.688L2.588,44.049a.486.486,0,0,0,0,.687l.376.376a.486.486,0,0,0,.687,0L25.22,23.544a.486.486,0,0,1,.687,0L47.475,45.112a.486.486,0,0,0,.687,0l.376-.376a.486.486,0,0,0,0-.687L37.532,33.043a.486.486,0,0,1,0-.691l2.8-2.743A.486.486,0,0,1,41.019,29.606Zm2.015-18.438v6.624a.486.486,0,0,1-.486.486h-12.7a.486.486,0,0,1-.486-.486v-.547a.486.486,0,0,1,.486-.486H41.029a.486.486,0,0,0,.486-.486v-5.1A.486.486,0,0,1,42,10.682h.547A.486.486,0,0,1,43.034,11.169ZM40,8.13v6.624a.486.486,0,0,1-.486.486h-12.7a.486.486,0,0,1-.486-.486V8.13a.486.486,0,0,1,.486-.486h12.7A.486.486,0,0,1,40,8.13Z" transform="translate(-2.257 -5.975)"/></svg>