<svg xmlns="http://www.w3.org/2000/svg" width="121.903" height="69.007" viewBox="0 0 121.903 69.007"><defs><style>.a{fill:#6463a8;stroke:#6463a8;}</style></defs><g transform="translate(-614.493 -720.385)"><g transform="translate(660.96 738.214)"><path class="a" d="M72.169,60.246c-9.541,0-15.941-9.3-16.062-9.42-.725-1.087-1.932-2.295-3.14-2.295-1.208.121-2.295,1.691-2.657,2.295-1.208,2.9-2.9,4.831-4.831,5.555a6.869,6.869,0,0,1-5.314-.362,3.786,3.786,0,0,1-1.932-4.589l1.57-5.555a9.924,9.924,0,0,1,5.555-6.28l6.159-2.657c2.657-1.208,5.072-.845,7.729-.242L75.309,40.44a1.615,1.615,0,0,1,.966.845l6.038,14.251a1.494,1.494,0,0,1-.483,1.691A18.238,18.238,0,0,1,72.169,60.246ZM53.088,45.875c1.812,0,3.623,1.208,5.314,3.382.362.6,9.058,13.164,20.893,6.159l-5.314-12.56L58.643,39.232c-2.657-.483-4.227-.725-6.038.121l-6.159,2.778A7.2,7.2,0,0,0,42.46,46.72l-1.57,5.555a1.214,1.214,0,0,0,.6,1.328,3.688,3.688,0,0,0,3.14.362c1.328-.483,2.415-1.932,3.382-4.106v-.121c.242-.362,1.932-3.623,4.951-3.865Z" transform="translate(-38.039 -36.137)"/></g><g transform="translate(688.781 756.72)"><path class="a" d="M69.076,65.4a1.268,1.268,0,0,1-1.087-.6l-6.642-9.178a1.451,1.451,0,0,1,0-1.691,1.317,1.317,0,0,1,1.57-.362c.242.121,7,2.778,12.318-1.812a1.4,1.4,0,0,1,1.208-.242,1.352,1.352,0,0,1,.966.845L80.79,60.2a1.676,1.676,0,0,1,0,1.087,1.277,1.277,0,0,1-.845.725L69.438,65.276A.444.444,0,0,1,69.076,65.4Zm-3.382-8.333L69.559,62.5l8.091-2.536L75.6,55.01A15.044,15.044,0,0,1,65.694,57.063Z" transform="translate(-61.075 -51.461)"/></g><g transform="translate(629.372 734.818)"><path class="a" d="M24.947,65.781a.726.726,0,0,1-.483-.121L12.749,61.071a1.38,1.38,0,1,1,1.087-2.536l10.386,4.106L33.763,40.42,23.135,35.952a1.38,1.38,0,0,1,1.087-2.536l11.956,5.072a1.089,1.089,0,0,1,.725.725,1.676,1.676,0,0,1,0,1.087L26.275,65.057A1.387,1.387,0,0,1,24.947,65.781Z" transform="translate(-11.882 -33.325)"/></g><g transform="translate(696.449 737.354)"><path class="a" d="M79.351,68a1.313,1.313,0,0,1-1.208-.845L67.516,42.4a1.676,1.676,0,0,1,0-1.087,1.089,1.089,0,0,1,.725-.725L80.2,35.516a1.38,1.38,0,0,1,1.087,2.536L70.535,42.641l9.541,22.221,10.386-4.106a1.38,1.38,0,0,1,1.087,2.536L79.834,67.881C79.713,67.881,79.472,68,79.351,68Z" transform="translate(-67.425 -35.425)"/></g><g transform="translate(679.027 758.644)"><path class="a" d="M69.424,72.795a5.236,5.236,0,0,1-3.623-1.57L53.362,57.94a1.366,1.366,0,1,1,1.932-1.932L67.734,69.172a2.435,2.435,0,0,0,2.174.725A2.1,2.1,0,0,0,71.6,68.447a1.687,1.687,0,0,0-.362-1.812L62.178,55.284a1.377,1.377,0,0,1,2.174-1.691L73.41,64.945a4.375,4.375,0,0,1,.725,4.348,4.914,4.914,0,0,1-3.744,3.261A2.275,2.275,0,0,1,69.424,72.795Z" transform="translate(-53 -53.053)"/></g><g transform="translate(673.473 767.516)"><path class="a" d="M64.221,75.738a7.046,7.046,0,0,1-4.951-2.053L48.762,62.695a1.366,1.366,0,1,1,1.932-1.932L61.2,71.752a4.134,4.134,0,0,0,3.865,1.208,4.031,4.031,0,0,0,2.9-2.657v-.121a1.337,1.337,0,1,1,2.536.845v.242a6.473,6.473,0,0,1-4.831,4.468A5.819,5.819,0,0,0,64.221,75.738Z" transform="translate(-48.4 -60.4)"/></g><g transform="translate(668.415 772.602)"><path class="a" d="M58.327,78.848h-.362a7.58,7.58,0,0,1-4.71-2.295l-8.7-9.661a1.369,1.369,0,1,1,2.053-1.812l8.7,9.661a4.476,4.476,0,0,0,2.778,1.449c1.691.121,3.019-.845,4.227-2.778a1.326,1.326,0,1,1,2.295,1.328C62.554,78.124,60.139,78.848,58.327,78.848Z" transform="translate(-44.211 -64.611)"/></g><g transform="translate(651.599 739.784)"><path class="a" d="M49.022,41.257h-.362c-7.488-1.691-16.787-.966-16.908-.966A1.353,1.353,0,0,1,30.3,39.083a1.274,1.274,0,0,1,1.208-1.449c.362,0,9.9-.845,17.753.966a1.277,1.277,0,0,1,.966,1.691A1.193,1.193,0,0,1,49.022,41.257Z" transform="translate(-30.287 -37.437)"/></g><g transform="translate(642.957 760.187)"><path class="a" d="M56.063,83.036a4.958,4.958,0,0,1-3.382-1.328l-4.106-3.865A223.525,223.525,0,0,0,23.7,56.83a1.39,1.39,0,0,1,1.57-2.295A219.744,219.744,0,0,1,50.508,75.79l4.106,3.865a2.254,2.254,0,0,0,2.295.483,2.1,2.1,0,0,0,1.449-1.57,1.454,1.454,0,0,1,1.57-1.208,1.339,1.339,0,0,1,1.208,1.449v.121a4.525,4.525,0,0,1-3.261,3.744A3.7,3.7,0,0,1,56.063,83.036Z" transform="translate(-23.131 -54.331)"/></g><g transform="translate(648.09 765.477)"><path class="a" d="M31.631,67.272a4.838,4.838,0,0,1-2.778-.966,3.782,3.782,0,0,1-1.449-2.9,3.648,3.648,0,0,1,1.087-3.019l1.087-1.208a1.369,1.369,0,0,1,2.053,1.812L30.544,62.2a1.454,1.454,0,0,0,.121,2.053,1.58,1.58,0,0,0,2.295-.242L34.046,62.8A1.369,1.369,0,0,1,36.1,64.615l-1.087,1.208A5.334,5.334,0,0,1,31.631,67.272Z" transform="translate(-27.381 -58.711)"/></g><g transform="translate(651.475 769.221)"><path class="a" d="M35.034,72.788a4.681,4.681,0,0,1-3.14-1.208A5.074,5.074,0,0,1,30.2,68.319a4.628,4.628,0,0,1,1.208-3.5l2.174-2.536a1.369,1.369,0,1,1,2.053,1.812l-2.174,2.536a2.108,2.108,0,0,0-.483,1.449,1.722,1.722,0,0,0,.725,1.449,2.208,2.208,0,0,0,2.9-.121L38.9,66.87a1.369,1.369,0,1,1,2.053,1.812l-2.295,2.536A5.236,5.236,0,0,1,35.034,72.788Z" transform="translate(-30.185 -61.811)"/></g><g transform="translate(657.453 773.689)"><path class="a" d="M39.923,75.642a4.373,4.373,0,0,1-3.261-1.328,4.637,4.637,0,0,1-.242-6.642l1.57-1.691a1.369,1.369,0,0,1,2.053,1.812l-1.57,1.691a2.051,2.051,0,1,0,3.019,2.778l1.57-1.691A1.366,1.366,0,1,1,45,72.5l-1.57,1.691A5.264,5.264,0,0,1,39.923,75.642Z" transform="translate(-35.135 -65.511)"/></g><g transform="translate(663.235 778.657)"><path class="a" d="M44.484,78.29a4.468,4.468,0,0,1-3.261-7.608l.6-.6A1.366,1.366,0,0,1,43.76,72.01l-.6.483a1.839,1.839,0,0,0,2.657,2.536l.845-.845a1.366,1.366,0,1,1,1.932,1.932l-.845.845A5.134,5.134,0,0,1,44.484,78.29Z" transform="translate(-39.924 -69.625)"/></g><g transform="translate(615 720.945)"><path class="a" d="M10.752,76.017a.726.726,0,0,1-.483-.121L.97,72.153a1.29,1.29,0,0,1-.725-1.812,1.29,1.29,0,0,1,1.812-.725l8.091,3.261,15.7-38.4-25-10.024a1.29,1.29,0,0,1-.725-1.812,1.494,1.494,0,0,1,1.812-.725L28.022,32.541a1.089,1.089,0,0,1,.725.725,1.676,1.676,0,0,1,0,1.087L11.96,75.172A1.257,1.257,0,0,1,10.752,76.017Z" transform="translate(0.018 -21.837)"/></g><g transform="translate(706.956 723.466)"><path class="a" d="M94.21,78.241A1.313,1.313,0,0,1,93,77.4L76.216,36.455a1.676,1.676,0,0,1,0-1.087,1.089,1.089,0,0,1,.725-.725l26.086-10.628a1.38,1.38,0,1,1,1.087,2.536L79.356,36.575l15.7,38.4,8.091-3.261a1.38,1.38,0,0,1,1.087,2.536L94.935,78C94.572,78.12,94.452,78.241,94.21,78.241Z" transform="translate(-76.125 -23.925)"/></g></g></svg>