<svg xmlns="http://www.w3.org/2000/svg" xmlns:xlink="http://www.w3.org/1999/xlink" width="47" height="43" viewBox="0 0 47 43">
  <defs>
    <linearGradient id="linear-gradient" x1="1" y1="0.833" x2="0" y2="0.257" gradientUnits="objectBoundingBox">
      <stop offset="0" stop-color="#f4df28"/>
      <stop offset="1" stop-color="#f89028"/>
    </linearGradient>
    <filter id="パス_3" x="0" y="0" width="47" height="39.17" filterUnits="userSpaceOnUse">
      <feOffset dy="3" input="SourceAlpha"/>
      <feGaussianBlur stdDeviation="3" result="blur"/>
      <feFlood flood-opacity="0.059"/>
      <feComposite operator="in" in2="blur"/>
      <feComposite in="SourceGraphic"/>
    </filter>
    <filter id="パス_4" x="0" y="12.765" width="25.505" height="30.235" filterUnits="userSpaceOnUse">
      <feOffset dy="3" input="SourceAlpha"/>
      <feGaussianBlur stdDeviation="3" result="blur-2"/>
      <feFlood flood-opacity="0.059"/>
      <feComposite operator="in" in2="blur-2"/>
      <feComposite in="SourceGraphic"/>
    </filter>
    <filter id="パス_5" x="21.495" y="12.766" width="25.505" height="30.234" filterUnits="userSpaceOnUse">
      <feOffset dy="3" input="SourceAlpha"/>
      <feGaussianBlur stdDeviation="3" result="blur-3"/>
      <feFlood flood-opacity="0.059"/>
      <feComposite operator="in" in2="blur-3"/>
      <feComposite in="SourceGraphic"/>
    </filter>
  </defs>
  <g id="グループ_11" data-name="グループ 11" transform="translate(-970.5 -32.5)">
    <g transform="matrix(1, 0, 0, 1, 970.5, 32.5)" filter="url(#パス_3)">
      <path id="パス_3-2" data-name="パス 3" d="M51.7,47.01H50.635V40.386A12.73,12.73,0,0,0,37.7,27.868,12.731,12.731,0,0,0,24.765,40.381V47.01H23.7V40.386a13.779,13.779,0,0,1,14-13.546,13.779,13.779,0,0,1,14,13.546Z" transform="translate(-14.2 -20.34)" stroke="#fff" stroke-width="1" fill="url(#linear-gradient)"/>
    </g>
    <g transform="matrix(1, 0, 0, 1, 970.5, 32.5)" filter="url(#パス_4)">
      <path id="パス_4-2" data-name="パス 4" d="M26.953,63.394A3.252,3.252,0,0,1,23.7,60.141h0V55.412a3.253,3.253,0,0,1,6.505,0h0v4.729a3.252,3.252,0,0,1-3.253,3.253Zm0-10.164a2.183,2.183,0,0,0-2.183,2.183h0v4.729a2.183,2.183,0,1,0,4.365,0V55.412a2.183,2.183,0,0,0-2.183-2.183Z" transform="translate(-14.2 -32.89)" stroke="#fff" stroke-width="1" fill="url(#linear-gradient)"/>
    </g>
    <g transform="matrix(1, 0, 0, 1, 970.5, 32.5)" filter="url(#パス_5)">
      <path id="パス_5-2" data-name="パス 5" d="M67.393,63.394a3.252,3.252,0,0,1-3.253-3.253h0V55.413a3.253,3.253,0,0,1,6.505,0v4.729a3.252,3.252,0,0,1-3.253,3.253Zm0-10.164a2.183,2.183,0,0,0-2.183,2.183h0v4.729a2.183,2.183,0,0,0,4.365,0V55.413a2.183,2.183,0,0,0-2.183-2.183Z" transform="translate(-33.15 -32.89)" stroke="#fff" stroke-width="1" fill="url(#linear-gradient)"/>
    </g>
  </g>
</svg>
