<svg xmlns="http://www.w3.org/2000/svg" width="103.894" height="92.193" viewBox="0 0 103.894 92.193"><defs><style>.a{fill:#6463a8;}.b{fill:none;stroke:#6463a8;stroke-linecap:round;stroke-width:2px;}</style></defs><g transform="translate(-348.723 -697.685)"><g transform="translate(-9.277 -13.45)"><path class="a" d="M107.757,62.289a7.951,7.951,0,0,0-6.738-3.85,7.7,7.7,0,0,0-3.6.963L76.243,70.625V68.7a8.278,8.278,0,0,0-2.329-5.775A19.251,19.251,0,0,0,60.842,29.562a18.455,18.455,0,0,0-2.058.115A13.476,13.476,0,1,0,42.091,44.52a18.577,18.577,0,0,0-.5,4.293A19.078,19.078,0,0,0,46.731,61.9l-5.005.366-17.037-3.85h-.116L13.022,56.494a1.925,1.925,0,0,0-2.233,1.636L5.014,94.708a1.925,1.925,0,0,0,1.617,2.233l11.551,1.925h.308a1.925,1.925,0,0,0,1.925-1.54l1.54-7.7L59.4,97.441a18.443,18.443,0,0,0,14.15-2.83l31.918-21.754h0a7.912,7.912,0,0,0,2.291-10.569Zm-71.941-30.8a9.639,9.639,0,0,1,19.251-1.02l-.443.173-.789.289-1.309.578-.751.385a13.919,13.919,0,0,0-1.271.77l-.655.4a15.98,15.98,0,0,0-1.54,1.232l-.385.327a18.072,18.072,0,0,0-1.348,1.367c-.193.212-.366.443-.539.655s-.578.712-.828,1.078-.366.52-.539.789-.443.751-.655,1.136-.289.539-.424.809a2.908,2.908,0,0,0-.212.424,9.626,9.626,0,0,1-7.566-9.395Zm9.626,17.326a15.035,15.035,0,0,1,.9-5.179,18.557,18.557,0,0,1,.77-1.79A15.4,15.4,0,0,1,57.4,33.8a16.017,16.017,0,0,1,3.446-.385,15.4,15.4,0,0,1,9.626,27.375.674.674,0,0,0-.212,0l-.847-.212h-.366a8.624,8.624,0,0,0-1.232,0h0l-5.044.154-1.087.058c1.243.216.843.071-.508,0-.575-.057-2.183.315-.7,0l-1.555.231-6.776.5A15.4,15.4,0,0,1,45.441,48.813ZM16.969,94.727l-7.835-1.29L14.312,60.71l7.7,1.309L18.489,86.988Zm86.226-25.1L71.353,91.377A14.746,14.746,0,0,1,60.13,93.63L22.571,85.794l3.311-23.1,15.285,3.446a2.81,2.81,0,0,0,.558,0l9.953-.732h.1l16.19-1.194a4.12,4.12,0,0,1,1.925.5,4.37,4.37,0,0,1,2.426,3.85v3.407L49.137,73.839l.308,3.85,25.026-1.925h0a1.771,1.771,0,0,0,.751-.212L99.152,62.789a3.85,3.85,0,0,1,1.925-.462,3.944,3.944,0,0,1,2.118,7.3Z" transform="translate(353.015 704.462)"/><path class="a" d="M54.911,41.719A1.249,1.249,0,0,0,53.255,42l-5.282,7.159L42.612,42a1.249,1.249,0,0,0-1.656-.284.987.987,0,0,0-.315,1.488l5.913,7.868h-4.1a1.069,1.069,0,1,0,0,2.126h4.336v1.418H42.455a1.069,1.069,0,1,0,0,2.126h4.336V59.58a1.189,1.189,0,0,0,2.365,0V56.745h4.336a1.069,1.069,0,1,0,0-2.126H49.156V53.2h4.336a1.069,1.069,0,1,0,0-2.126h-4.1l5.834-7.938A.907.907,0,0,0,54.911,41.719Z" transform="translate(365.948 701.928)"/></g><path class="b" d="M0,0h6.86" transform="matrix(1, 0.017, -0.017, 1, 364.035, 716.093)"/><path class="b" d="M0,0H6.861" transform="translate(368.199 704.464) rotate(43)"/><path class="b" d="M0,0H6.861" transform="translate(378.365 698.897) rotate(76)"/></g></svg>