<svg xmlns="http://www.w3.org/2000/svg" width="42.147" height="33.717" viewBox="0 0 42.147 33.717"><defs><style>.a{fill:#6463a8;}</style></defs><g transform="translate(-202.089 -3469.672)"><path class="a" d="M39.528,43.769v3.807a.739.739,0,0,0,0,.1.755.755,0,0,0,.023.1v.061l1.405,3.746a.938.938,0,0,0,.914.576h3.746a.936.936,0,0,0,.875-.609L47.9,47.81v-.061a.592.592,0,0,0,0-.1.585.585,0,0,0,0-.1V43.736a.609.609,0,0,0,0-.094A9.554,9.554,0,0,1,49.3,40.879a6.993,6.993,0,1,0-12.583-4.168,6.937,6.937,0,0,0,1.231,3.934A12.7,12.7,0,0,1,39.528,43.769Zm6.556,2.809H41.4V44.672h4.683Zm-1.119,3.746H42.521l-.7-1.873h3.849ZM43.561,31.593a5.151,5.151,0,0,1,5.331,4.965c0,.051,0,.1,0,.153a5.047,5.047,0,0,1-1.021,3.063A11.366,11.366,0,0,0,46.248,42.8H41.186a14.581,14.581,0,0,0-1.658-3.2,5.087,5.087,0,0,1-.936-2.89,5.23,5.23,0,0,1,4.992-5.151Z" transform="translate(178.015 3446.541)"/><path class="a" d="M29.843,41.717h.936a.937.937,0,1,0,0-1.873h-.936a.937.937,0,1,0,0,1.873Z" transform="translate(181.145 3442.472)"/><path class="a" d="M64.218,41.717h.936a.937.937,0,1,0,0-1.873h-.936a.937.937,0,1,0,0,1.873Z" transform="translate(167.375 3442.472)"/><path class="a" d="M55.435,26.767a.937.937,0,0,0,1.316-.136l.7-.861A.936.936,0,0,0,56,24.59l-.679.861A.937.937,0,0,0,55.435,26.767Z" transform="translate(170.65 3448.707)"/><path class="a" d="M38.472,26.631a.936.936,0,0,0,1.451-1.18l-.7-.861a.936.936,0,0,0-1.451,1.18Z" transform="translate(177.666 3448.707)"/><path class="a" d="M15.624,46.07a1.257,1.257,0,0,0,.056.192h0l2.341,5.619a.937.937,0,0,0,1.733,0L22.1,46.262h0a1.328,1.328,0,0,0,.056-.192V46a.763.763,0,0,0,.028-.089V19.687a.937.937,0,0,0-.937-.937H16.561a.937.937,0,0,0-.937.937V45.911a.73.73,0,0,0,0,.089ZM18.9,49.095l-.937-2.248h1.873ZM17.5,20.623h2.81V44.974H17.5Z" transform="translate(186.466 3450.922)"/><path class="a" d="M71.249,52.467h7.493a.937.937,0,0,0,.937-.936V19.687a.937.937,0,0,0-.937-.937H71.249a.937.937,0,0,0-.936.937V51.53A.936.936,0,0,0,71.249,52.467Zm.937-31.843h5.619v3.746H75.932a.937.937,0,1,0,0,1.873h1.873v3.746H75.932a.937.937,0,1,0,0,1.873h1.873v3.746H75.932a.937.937,0,1,0,0,1.873h1.873v3.746H75.932a.937.937,0,1,0,0,1.873h1.873v3.746H75.932a.937.937,0,1,0,0,1.873h1.873v1.873H72.186Z" transform="translate(164.557 3450.922)"/></g></svg>