<svg xmlns="http://www.w3.org/2000/svg" width="51.5" height="44.423" viewBox="0 0 51.5 44.423"><defs><style>.a,.b{fill:none;}.a,.b,.c{stroke-linecap:round;}.b,.c{stroke:#6463a8;stroke-width:2px;}.c{fill:#fff;stroke-linejoin:round;}.d,.e{stroke:none;}.e{fill:#6463a8;}</style></defs><g transform="translate(-206 -3515.5)"><g transform="translate(9 139)"><g class="a" transform="translate(197 3385)"><path class="d" d="M2,0H39a2,2,0,0,1,2,2V27a2,2,0,0,1-2,2H2a2,2,0,0,1-2-2V2A2,2,0,0,1,2,0Z"/><path class="e" d="M 2 2 L 2 27 L 39 27 L 39 2 L 2 2 M 2 0 L 39 0 C 40.10456848144531 0 41 0.8954296112060547 41 2 L 41 27 C 41 28.10457038879395 40.10456848144531 29 39 29 L 2 29 C 0.8954315185546875 29 0 28.10457038879395 0 27 L 0 2 C 0 0.8954296112060547 0.8954315185546875 0 2 0 Z"/></g><path class="b" d="M4457.241,3417.923h12.735" transform="translate(-4247 2)"/><path class="b" d="M4457.241,3417.923h6.368" transform="translate(3634.531 -1043.686) rotate(90)"/><path class="c" d="M-4281.1,26.5h-4.9a3.5,3.5,0,0,1-3.5-3.5V4A3.5,3.5,0,0,1-4286,.5h24a3.5,3.5,0,0,1,3.5,3.5V23a3.5,3.5,0,0,1-3.5,3.5h-11.414l-7.822,5.669S-4281.067,28.608-4281.1,26.5Z" transform="translate(4506 3377)"/></g><path class="b" d="M4521.25,3385.066h18.357" transform="translate(-4289 139)"/><path class="b" d="M4521.25,3385.066h18.357" transform="translate(-4289 144)"/><path class="b" d="M4521.25,3385.066h11.32" transform="translate(-4289 149)"/></g></svg>