<svg xmlns="http://www.w3.org/2000/svg" width="42.236" height="42.457" viewBox="0 0 42.236 42.457"><defs><style>.a{fill:#6463a8;}</style></defs><g transform="translate(-208 -3698.073)"><path class="a" d="M39.281,14.718h-4.5V6.84A5.349,5.349,0,0,0,29.433,1.5H7.112A5.348,5.348,0,0,0,1.75,6.835v18.08a5.348,5.348,0,0,0,5.362,5.335H9.795v6.127a1.094,1.094,0,0,0,1.869.775l6.872-6.9h1.313v2.88a4.709,4.709,0,0,0,4.683,4.705h5.4l5.808,5.8a1.094,1.094,0,0,0,1.869-.775V37.836h1.672a4.71,4.71,0,0,0,4.705-4.705V19.423A4.71,4.71,0,0,0,39.281,14.718ZM18.08,28.063a1.094,1.094,0,0,0-.775.32l-5.34,5.335V29.157a1.094,1.094,0,0,0-1.094-1.094H7.112a3.156,3.156,0,0,1-3.173-3.138V6.844A3.156,3.156,0,0,1,7.094,3.688H29.433a3.156,3.156,0,0,1,3.156,3.156V24.916a3.156,3.156,0,0,1-3.156,3.147ZM41.8,33.131a2.516,2.516,0,0,1-2.517,2.517H36.515a1.094,1.094,0,0,0-1.094,1.094v3.5l-4.263-4.254a1.094,1.094,0,0,0-.775-.32H24.531a2.517,2.517,0,0,1-2.539-2.495V30.251h7.441a5.349,5.349,0,0,0,5.344-5.335V16.906h4.5A2.516,2.516,0,0,1,41.8,19.423Z" transform="translate(206.25 3696.573)"/><path class="a" d="M33.436,14.464a4.814,4.814,0,0,0-4.944,4.681c0,.044,0,.089,0,.133a1.094,1.094,0,0,0,2.188,0,2.6,2.6,0,0,1,.792-1.878,2.566,2.566,0,0,1,1.9-.74,2.626,2.626,0,0,1,1.081,4.972,3.978,3.978,0,0,0-2.241,3.523V25.7a1.094,1.094,0,1,0,2.188,0v-.5a1.8,1.8,0,0,1,1.029-1.615,4.814,4.814,0,0,0-1.987-9.126Z" transform="translate(191.213 3689.286)"/><path class="a" d="M38.074,48a1.094,1.094,0,0,0-1.094,1.094v.4a1.094,1.094,0,0,0,2.188,0v-.4A1.094,1.094,0,0,0,38.074,48Z" transform="translate(186.439 3670.426)"/></g></svg>